<?xml version="1.0" encoding="utf-8"?>
<!-- Generator: Adobe Illustrator 21.0.0, SVG Export Plug-In . SVG Version: 6.00 Build 0)  -->
<svg version="1.1" id="Capa_1" xmlns="http://www.w3.org/2000/svg" xmlns:xlink="http://www.w3.org/1999/xlink" x="0px" y="0px"
	 viewBox="0 0 292.8 72.6" style="enable-background:new 0 0 292.8 72.6;" xml:space="preserve">
<style type="text/css">
	.st0{fill:#E4372A;}
	.st1{fill:#FFFFFF;}
</style>
<g>
	<polygon class="st0" points="137.1,19.7 140.9,0 121.2,0 	"/>
	<polygon class="st1" points="108.9,72.6 119,19.7 137.1,19.7 127,72.6 	"/>
	<path class="st1" d="M77.1,31.7h5.6c7.1,0,12.6-4.1,12.6-10.4c0-4.9-4.5-7.2-9.7-7.2c-2.6,0-4.3,0.2-5.3,0.4L77.1,31.7z M64.8,1.6
		c5-1.2,12.9-1.9,20.7-1.9c6.6,0,14,0.6,19.6,3.8c5.1,2.7,9,7.5,9,15c0,10.7-6.6,17-15.8,20.2l-0.1,0.4c3.9,2,5.6,6.4,6.4,12.7
		c1,7.3,1.6,17.8,3,20.8H89c-0.6-2.1-1.4-7.7-2.2-17c-0.6-8.3-3.4-10.3-8.9-10.3h-3.3l-5.1,27.3h-18L64.8,1.6z"/>
	<path class="st1" d="M5.9,52.7c4.4,2.4,10.7,4.4,17.6,4.4c5,0.1,9.6-1.8,9.6-6c0-3.4-3.2-5.4-9.4-8.6c-6.9-3.7-15.1-9.1-15.1-18.8
		c0-15,13.3-23.9,30-23.9c9.5,0,14.6,1.8,18,3.4l-5.5,15c-2.4-1.2-7.8-3.1-13.7-2.9c-6.5,0-9.6,2.5-9.6,5.5c0,3.3,4.8,5.5,10.2,8.6
		c8.7,4.4,14.5,10.2,14.5,18.5c0,17.2-14.8,24.6-30.6,24.6C10.7,72.3,3.5,69.8,0,67.4L5.9,52.7z"/>
	<g>
		<path class="st1" d="M160.6,58.2c0.9-1.3,1.7,0.6-0.4,3.7c-0.7,1.1-5.8,9.6-11.8,9.5c-7.2-0.2-7.4-5.9-6.8-10.1
			c0.6-4.2,5.4-12.7,9.5-10c3,2.2,0.7,6-0.7,8.8c-1.7,3.3-4.2,6-5.5,7.3c0.6,0.6,1.9,1.1,3.2,1.1C154,68.6,158.3,61.6,160.6,58.2z
			 M149.3,53.5c-1.6-0.2-5.7,7.4-5.2,11.9c3-2.9,3.4-4.4,4.3-6.3C149.7,56.7,150.7,53.9,149.3,53.5z"/>
		<path class="st1" d="M162.5,58.8c-0.2,0-0.9,1.3-2.2,3.2c-0.6,0.6-1.8-0.6-0.9-2.1c0.6-0.9,1.1-1.7,2.1-2.9c1-1.4,3-2.2,3.8,0.5
			c0.9,3.4-2.1,9.1-0.5,9.5c1.2,0.2,5.9-9.7,6.9-11.5c0.9-1.8,2.7-1.6,3.8-0.1c1,1.2-5.2,12.7,1,13.1c4.8,0.4,9.3-6.8,11.5-10.1
			c0.9-1.3,1.7,0.6-0.3,3.7c-0.7,1.1-5.6,9.1-11.5,8.8c-8.2-0.2-3.8-10-4.9-10.4c-0.6-0.2-3.7,9.8-7.6,9.6c-3.1-0.2-1.6-5.3-1-8.5
			C162.9,60,163,58.8,162.5,58.8z"/>
		<path class="st1" d="M214.1,58.4c0.9-1.3,1.8,0.6-0.3,3.7c-0.7,1.1-5.9,9.9-13.6,9.5c-9.3-0.5-8.4-10.9-7.3-19.7
			c1-7.7,7.4-23.5,13.5-23.1c3.9,0.2,4.8,5,2.7,12.8c-2.7,10.6-10.1,21-13,24c1.2,2.2,3,3.6,5.3,3.6
			C207.3,69.2,211.9,61.7,214.1,58.4z M206.1,31.7c-3-0.2-8.4,9.6-10.7,20.3c-0.6,3.3-0.8,8.8-0.1,11.6c4.8-6,6.5-9.1,10.6-20.4
			C206.7,41.2,209.1,31.9,206.1,31.7z"/>
		<path class="st1" d="M217.6,71.5c-6.2,0.1-6-7.3-5.7-8.8c0.4-1.8,1.4-5.3,1.4-5.3c0.7-1.4,3.2-1.3,3,0.2c0,0.4-4.4,11.6,1.9,11.3
			c4.2-0.2,9-7.3,11.3-10.7c0.9-1.4,1.8,0.5-0.2,3.7C228.6,63,223.2,71.5,217.6,71.5z M220.4,45c1-1.4,1.4-1.4,2.2-0.2
			c0.9,1.3-0.3,2.3-0.3,2.3s-1.9,3-2.8,4.6c-0.9,1.6-1.7,2.2-2.3,1.6c-0.6-0.5-0.4-1.7-0.3-1.9C217,51,219.9,45.7,220.4,45z"/>
		<path class="st1" d="M231.5,58.8c-0.2,0-0.9,1.3-2.2,3.2c-0.6,0.6-1.8-0.6-0.9-2.1c0.6-0.9,1.1-1.7,2.1-2.9c1-1.4,3-2.2,3.8,0.5
			c0.9,3.4-2.1,9.1-0.5,9.5c1.2,0.2,5.9-9.7,6.9-11.5c0.9-1.8,2.7-1.6,3.8-0.1c1,1.2-5.2,12.7,1,13.1c4.8,0.4,9.3-6.8,11.5-10.1
			c0.9-1.3,1.7,0.6-0.3,3.7c-0.7,1.1-5.6,9.1-11.5,8.8c-8.2-0.2-3.8-10-4.9-10.4c-0.6-0.2-3.7,9.8-7.6,9.6c-3.1-0.2-1.6-5.3-1-8.5
			C232,60,232.1,58.8,231.5,58.8z"/>
		<path class="st1" d="M268.3,58.2c0.9-1.3,1.7,0.6-0.4,3.7c-0.7,1.1-5.8,9.6-11.8,9.5c-7.2-0.2-7.4-5.9-6.8-10.1
			c0.6-4.2,5.4-12.7,9.5-10c3,2.2,0.7,6-0.7,8.8c-1.7,3.3-4.2,6-5.5,7.3c0.6,0.6,1.9,1.1,3.2,1.1C261.6,68.6,265.9,61.6,268.3,58.2z
			 M256.9,53.5c-1.6-0.2-5.7,7.4-5.2,11.9c3-2.9,3.4-4.4,4.3-6.3C257.3,56.7,258.3,53.9,256.9,53.5z"/>
		<path class="st1" d="M280.5,71.2c-4.8,0.1-4.9-4.8-4.9-4.8s-3.5,5.3-6.3,5.2c-1.5,0-5.2-1.4-3.4-8.8c1.8-7.5,7.2-10.8,9.8-10.8
			c4.6,0.2,3.7,4.1,3.6,4.5c-0.9,2.1-1.6,1.5-2.1,1.3c0,0,0.9-3.3-1.8-3.4c-2.3-0.1-5,3.4-6.2,7c-1.3,3.7-1.2,7.4,0.7,7.4
			c2.9,0,6.3-8,6.9-10c0.3-0.8,3.1-0.2,2.8,1.1c-0.1,0-3.9,8.5,1.4,8.5c2.4,0,5.8-2.5,10.9-10.2c0.9-1.3,1.8,0.6-0.3,3.7
			C289.9,64.5,285.2,71.1,280.5,71.2z"/>
	</g>
</g>
</svg>
