<svg xmlns="http://www.w3.org/2000/svg" viewBox="0 0 595.28 109.69"><defs><style>.cls-1{fill:#008ace;}.cls-2{fill:#00a1e3;}.cls-3{fill:#00acec;}</style></defs><title>Recurso 4</title><g id="Capa_2" data-name="Capa 2"><g id="Layer_1" data-name="Layer 1"><rect class="cls-1" y="7.48" width="33.23" height="33.69"/><rect class="cls-2" x="33.23" y="7.48" width="33.24" height="33.69"/><rect class="cls-3" x="66.47" y="7.48" width="33.23" height="33.69"/><rect class="cls-2" y="41.16" width="33.23" height="33.68"/><rect class="cls-1" x="66.47" y="41.16" width="33.23" height="33.68"/><rect class="cls-1" y="74.74" width="33.23" height="33.68"/><rect class="cls-2" x="33.23" y="74.74" width="33.24" height="33.68"/><rect class="cls-3" x="66.47" y="74.74" width="33.23" height="33.68"/><path class="cls-3" d="M171.42,108.31H117.29V7.26h54.13v14H132.93V48.73H169V62.55H132.93V94.28h38.49Z"/><path class="cls-3" d="M211.74,109.69q-16.43,0-25-10.13T178.23,70.5q0-19.29,8.94-29.65T213,30.48A46.27,46.27,0,0,1,233.6,35L229,48q-9.77-4-16.1-4-18.8,0-18.79,26.33,0,12.86,4.68,19.32t13.71,6.46a37.68,37.68,0,0,0,19.44-5.39v14.17a29.12,29.12,0,0,1-8.8,3.66A50,50,0,0,1,211.74,109.69Z"/><path class="cls-3" d="M292.06,108.31l-2.16-10h-.78a22.32,22.32,0,0,1-9.13,8.37,29.16,29.16,0,0,1-13.52,3q-13.16,0-19.63-6.91t-6.48-20.94v-50h15.51V79q0,8.77,3.4,13.17t10.67,4.39q9.69,0,14.23-6.12T288.72,70V31.86h15.45v76.45Z"/><path class="cls-3" d="M363.48,108.31,360.4,97.66h-.52q-5.24,7-10.54,9.51t-13.61,2.52q-10.68,0-16.66-6.08t-6-17.21q0-11.82,8.31-17.83T346.72,62l12.5-.41V57.51q0-7.34-3.24-11t-10-3.63a33.09,33.09,0,0,0-10.67,1.73,77.39,77.39,0,0,0-9.82,4.08l-5-11.61a51.08,51.08,0,0,1,12.89-4.94,56.35,56.35,0,0,1,13.22-1.7q13.82,0,20.85,6.36t7,20v51.49ZM340.57,97.25q8.39,0,13.45-4.94t5.07-13.86V71.81l-9.29.42q-10.86.42-15.81,3.84t-4.94,10.47c0,3.41,1,6,2.88,7.91S336.73,97.25,340.57,97.25Z"/><path class="cls-3" d="M424.36,44.17H406.69v64.14H391.24V44.17H379.33V36.56l11.91-5v-5q0-13.55,6-20.08T415.65,0a46.93,46.93,0,0,1,16,2.83l-4.06,12.31A33.7,33.7,0,0,0,416.7,13.2q-5.24,0-7.62,3.42t-2.39,10.27v5h17.67Z"/><path class="cls-3" d="M474.05,108.31,471,97.66h-.52q-5.25,7-10.54,9.51c-3.54,1.68-8.07,2.52-13.62,2.52q-10.67,0-16.65-6.08t-6-17.21q0-11.82,8.31-17.83T457.29,62l12.5-.41V57.51q0-7.34-3.24-11t-10-3.63a33,33,0,0,0-10.67,1.73A76.79,76.79,0,0,0,436,48.73l-5-11.61a51.08,51.08,0,0,1,12.89-4.94,56.28,56.28,0,0,1,13.22-1.7q13.81,0,20.84,6.36t7,20v51.49ZM451.14,97.25q8.37,0,13.45-4.94t5.07-13.86V71.81l-9.29.42q-10.87.42-15.81,3.84t-4.94,10.47c0,3.41,1,6,2.88,7.91S447.3,97.25,451.14,97.25Z"/><path class="cls-3" d="M527.79,109.69q-16.42,0-25-10.13T494.28,70.5q0-19.29,8.93-29.65T529,30.48A46.28,46.28,0,0,1,549.65,35L545,48q-9.75-4-16.1-4-18.78,0-18.78,26.33,0,12.86,4.68,19.32t13.71,6.46A37.68,37.68,0,0,0,548,90.75v14.17a29.12,29.12,0,0,1-8.8,3.66A50,50,0,0,1,527.79,109.69Z"/><path class="cls-3" d="M584,96.56a35.73,35.73,0,0,0,11.26-1.87v12.24a30.42,30.42,0,0,1-6.58,2,43.69,43.69,0,0,1-8.34.79q-21.86,0-21.86-24.33V44.17h-9.88V37L559.22,31l5.23-16.17h9.49v17h20.62V44.17H573.94V85.08q0,5.88,2.79,8.68A9.8,9.8,0,0,0,584,96.56Z"/></g></g></svg>