<?xml version="1.0" encoding="utf-8"?>
<!-- Generator: Adobe Illustrator 16.0.0, SVG Export Plug-In . SVG Version: 6.00 Build 0)  -->
<!DOCTYPE svg PUBLIC "-//W3C//DTD SVG 1.1//EN" "http://www.w3.org/Graphics/SVG/1.1/DTD/svg11.dtd">
<svg version="1.1" id="Capa_1" xmlns="http://www.w3.org/2000/svg" xmlns:xlink="http://www.w3.org/1999/xlink" x="0px" y="0px"
	 width="164.184px" height="38.903px" viewBox="0 0 164.184 38.903" enable-background="new 0 0 164.184 38.903"
	 xml:space="preserve">
<g>
	<polygon fill="#E1261C" points="69.062,10.41 70.992,0.507 61.061,0.507 	"/>
	<polygon fill="#FFFFFF" points="54.892,36.985 59.953,10.424 69.056,10.424 64.002,36.985 	"/>
	<path fill="#FFFFFF" d="M38.831,16.425h2.839c3.589,0,6.375-2.051,6.375-5.234c0-2.48-2.249-3.613-4.874-3.613
		c-1.287,0-2.146,0.106-2.682,0.215L38.831,16.425z M32.669,1.317c2.519-0.591,6.483-0.97,10.446-0.97
		c3.324,0,7.072,0.322,9.856,1.89c2.575,1.347,4.557,3.774,4.557,7.552c0,5.395-3.32,8.525-7.981,10.145l-0.054,0.217
		c1.98,1.023,2.839,3.236,3.214,6.366c0.479,3.673,0.803,8.957,1.501,10.468h-9.376c-0.324-1.079-0.7-3.885-1.125-8.527
		c-0.325-4.152-1.717-5.178-4.499-5.178h-1.662l-2.572,13.705H25.92L32.669,1.317z"/>
	<path fill="#FFFFFF" d="M2.999,26.996c2.196,1.209,5.412,2.208,8.894,2.208c2.518,0.053,4.818-0.892,4.818-2.997
		c0-1.734-1.603-2.734-4.711-4.312C8.517,20.053,4.39,17.32,4.39,12.428c0-7.519,6.697-11.987,15.112-11.987
		c4.769,0,7.336,0.892,9.05,1.682L25.768,9.64c-1.231-0.576-3.912-1.576-6.91-1.469c-3.269,0-4.822,1.262-4.822,2.785
		c0,1.683,2.408,2.787,5.143,4.312c4.391,2.209,7.284,5.102,7.284,9.31c0,8.623-7.443,12.357-15.429,12.357
		C5.409,36.828,1.767,35.567,0,34.356L2.999,26.996z"/>
	<g>
		<path fill="#FFFFFF" d="M123.147,24.087c0.27-0.395,0.138-0.912-0.24-1.221c-0.146-0.119-0.633-0.102-0.712,0.018
			c-1.03,1.567-2.515,2.965-2.29,5.455C121.747,27.173,122.216,25.45,123.147,24.087z"/>
		<path fill="#FFFFFF" d="M100.202,34.628c-0.54,0.469-1.063,0.961-1.625,1.402c-1.044,0.818-2.249,1.35-3.496,0.68
			c-1.31-0.7-0.859-2.049-0.732-3.166c0.102-0.883,0.392-1.752,0.662-2.605c0.252-0.799,0.585-1.643-0.4-2.11
			c-1.201-0.569-1.567,0.494-1.975,1.247c-0.468,0.86-0.822,1.781-1.226,2.676c-1.01,0.838-1.036,2.479-2.48,3.068
			c-0.476-1.537,0.556-2.841,0.419-4.268c-0.07-0.73-0.021-1.539-0.792-1.859c-0.802-0.334-1.365,0.248-1.79,0.852
			c-0.819,1.17-1.599,2.367-2.394,3.553l0,0c-1.48,1.141-2.641,2.828-4.754,2.895c-0.613,0.021-1.484,0.025-1.796-0.34
			c-0.524-0.609,0.307-1.1,0.673-1.558c1.082-1.353,2.014-2.79,2.686-4.386c0.576-1.366,1.224-2.867-0.501-3.809
			c-1.583-0.863-2.461,0.504-3.357,1.494c-0.3,0.332-0.517,0.743-0.744,1.134c-2.056,3.517-1.924,7.29,0.295,8.644
			c2.506,1.527,5.6,0.254,8.144-3.352c0.82-0.996,1.641-1.99,2.557-3.104c0.341,1.532-0.408,2.703-0.42,3.965
			c-0.008,0.808-0.202,1.756,0.721,2.16c1.02,0.447,1.715-0.268,2.292-0.992c0.789-0.992,1.469-2.055,1.808-3.298
			c0.143-0.057,0.4-0.181,0.413-0.161c0.122,0.205,0.295,0.441,0.283,0.659c-0.092,1.744-0.176,3.548,1.879,4.25
			c2.001,0.683,3.663-0.235,5.11-1.56c0.453-0.414,0.812-0.932,1.212-1.402c0.958-0.926,2.047-1.789,1.71-4.102
			C101.553,32.704,100.877,33.667,100.202,34.628z M80.082,27.936c-0.044,3.025-1.269,4.899-2.999,6.537
			C77.071,32.027,77.762,29.92,80.082,27.936z"/>
		<path fill="#FFFFFF" d="M163.987,31.683c-1.017,0.76-1.545,1.547-1.99,2.412c-0.864,0.762-1.696,1.563-2.601,2.273
			c-0.82,0.645-1.803,0.892-2.736,0.302c-0.915-0.577-0.677-1.566-0.573-2.438c0.113-0.955,0.789-1.818,0.473-2.85
			c-1.23-0.425-1.537,0.415-1.904,1.305c-0.554,1.338-1.188,2.652-2.207,3.719c-0.433,0.451-0.949,1.01-1.627,0.669
			c-0.606-0.305-0.769-0.995-0.714-1.659c0.136-1.65,0.623-3.195,1.529-4.589c1.581-2.433,2.498-2.425,4.081-0.022
			c0.054,0.082,0.502-0.096,0.767-0.15c0.16-1.064,0.572-2.256-0.65-2.926c-1.245-0.682-2.472-0.288-3.567,0.495
			c-1.443,1.03-2.285,2.522-3.171,4.01c-1.413,2.376-3.091,4.521-6.158,4.784c-0.492,0.042-1.212-0.086-1.473-0.414
			c-0.423-0.533,0.252-0.958,0.586-1.334c1.337-1.515,2.259-3.272,2.995-5.123c0.445-1.117,0.726-2.35-0.537-3.166
			c-1.439-0.928-2.43,0.082-3.241,1.05c-1.748,2.085-2.712,4.494-2.373,7.263c0.159,1.298-0.616,1.558-1.593,1.654
			c-0.97,0.096-1.923-0.059-2.084-1.208c-0.123-0.878,0.062-1.795,0.049-2.692c-0.021-1.447,2.09-3.504-0.155-4.162
			c-1.749-0.513-1.899,2.139-2.669,3.453c0,0,0,0,0,0c0,0,0,0,0,0c-1.105,0.879-1.073,2.621-2.618,3.405
			c-0.283-1.176,0.084-2.164,0.27-3.172c0.195-1.063,0.438-2.339-0.752-2.856c-1.149-0.498-1.643,0.791-2.295,1.455
			c-0.294,0.298-0.413,0.77-0.611,1.162c-1.112,1.302-2.223,2.604-3.335,3.906c0,0,0,0,0,0c-1.214,0.436-2.345,1.78-3.736,0.642
			c-1.26-1.03-0.709-2.49-0.556-3.817c0.031-0.269,0.101-0.535,0.121-0.806c0.054-0.727,1.078-1.707-0.063-2.113
			c-1.257-0.448-1.296,0.924-1.604,1.691c-1.039,2.58-2.86,4.406-5.424,5.388c-1.363,0.522-2.695,0.149-3.708-0.999
			c-1.05-1.193,0.359-1.697,0.703-2.505c0.354-0.835,0.98-1.475,1.47-2.202c2.919-4.324,5.184-8.953,5.497-14.271
			c0.078-1.314,0.095-2.836-1.552-3.434c-1.438-0.523-2.545,0.252-3.328,1.267c-4.527,5.88-6.408,12.551-5.303,19.884
			c0.479,3.178,2.963,4.404,6.104,3.668c1.958-0.457,3.246-1.867,4.722-3.035c2.227,3.914,4.079,4.245,7.365,1.352c0,0,0,0,0-0.001
			c0,0,0,0,0.001,0.001c1.449-0.611,1.644-2.295,2.749-3.201c0.95-0.34,0.888-1.737,2.066-1.977
			c-0.203,1.402-0.449,2.725-0.567,4.057c-0.067,0.766-0.25,1.744,0.773,2.064c1.022,0.32,1.754-0.342,2.243-1.123
			c0.749-1.196,1.376-2.469,2.054-3.709c0.72,0.278,0.429,0.895,0.44,1.387c0.086,3.738,1.315,4.641,4.939,3.615
			c0.422-0.119,0.994-0.41,1.265-0.244c3.438,2.1,5.989,0.415,8.371-1.996c1.608,3.959,2.496,4.035,6.01,0.633
			c2.264,2.693,3.898,2.859,6.533,0.559c0.737-0.645,1.306-1.481,1.951-2.23C163.466,34.036,164.313,33.298,163.987,31.683z
			 M111.35,16.89c0.473-0.73,1.132-1.73,2.141-1.311c1.131,0.469,0.839,1.679,0.678,2.641c-0.957,5.706-3.297,10.806-7.184,16.041
			C106.263,27.392,108.079,21.945,111.35,16.89z M142.416,29.023c0.23-0.352,0.531-0.835,1.061-0.579
			c0.491,0.237,0.437,0.721,0.278,1.179c-0.649,1.873-1.535,3.59-3.259,5.301C140.414,32.391,141.335,30.675,142.416,29.023z"/>
	</g>
</g>
</svg>
