<?xml version="1.0" encoding="UTF-8"?>
<svg xmlns="http://www.w3.org/2000/svg" xmlns:xlink="http://www.w3.org/1999/xlink" width="779.21pt" height="110.64pt" viewBox="0 0 779.21 110.64" version="1.1">
<defs>
<clipPath id="clip1">
  <path d="M 0 0 L 111 0 L 111 110.640625 L 0 110.640625 Z M 0 0 "/>
</clipPath>
<clipPath id="clip2">
  <path d="M 739 40 L 779.210938 40 L 779.210938 86 L 739 86 Z M 739 40 "/>
</clipPath>
</defs>
<g id="surface1">
<g clip-path="url(#clip1)" clip-rule="nonzero">
<path style=" stroke:none;fill-rule:nonzero;fill:rgb(0%,45.899963%,71.398926%);fill-opacity:1;" d="M 0 0 L 75.953125 0 C 75.953125 0 107.691406 3.175781 110.640625 32.875 L 110.640625 110.640625 L 32.421875 110.640625 C 32.421875 110.640625 5.441406 109.054688 0 76.40625 "/>
</g>
<path style=" stroke:none;fill-rule:nonzero;fill:rgb(100%,100%,100%);fill-opacity:1;" d="M 60.308594 75.058594 C 62.347656 84.808594 72.578125 84.128906 72.578125 84.128906 C 85.757813 82.769531 84.792969 71.433594 84.792969 71.433594 C 85.703125 61.457031 75.042969 59.414063 75.042969 59.414063 L 60.308594 59.414063 Z M 51.066406 59.414063 L 36.332031 59.414063 C 36.332031 59.414063 25.675781 61.457031 26.582031 71.433594 C 26.582031 71.433594 25.621094 82.769531 38.796875 84.128906 C 38.796875 84.128906 49.027344 84.808594 51.066406 75.058594 Z M 60.308594 50.558594 L 75.042969 50.558594 C 75.042969 50.558594 85.703125 48.519531 84.792969 38.542969 C 84.792969 38.542969 85.757813 27.207031 72.578125 25.847656 C 72.578125 25.847656 62.347656 25.164063 60.308594 34.914063 Z M 50.785156 50.332031 L 50.785156 35.140625 C 50.785156 35.140625 53.734375 16.097656 72.097656 17.003906 C 72.097656 17.003906 90.007813 15.644531 93.636719 37.183594 C 93.636719 37.183594 95.675781 47.609375 85.476563 55.320313 C 85.476563 55.320313 93.742188 60.761719 93.804688 72.550781 C 93.804688 72.550781 91.761719 92.503906 72.292969 93.183594 C 72.292969 93.183594 62.578125 94.316406 55.320313 85.25 C 55.320313 85.25 48.519531 94.40625 38.769531 93.226563 C 38.769531 93.226563 19.042969 94.089844 17.230469 71.191406 C 17.230469 71.191406 17.230469 53.507813 34.914063 50.558594 "/>
<path style=" stroke:none;fill-rule:nonzero;fill:rgb(0%,45.899963%,71.398926%);fill-opacity:1;" d="M 159.160156 60.535156 L 159.160156 74.816406 L 173.21875 74.816406 C 173.21875 74.816406 180.925781 73.910156 180.472656 67.675781 C 180.472656 67.675781 180.472656 60.988281 172.082031 60.535156 Z M 159.160156 38.195313 L 159.160156 51.691406 L 171.175781 51.691406 C 171.175781 51.691406 179.339844 50.441406 178.65625 44.945313 C 178.65625 44.945313 179.339844 38.757813 170.949219 38.195313 Z M 173.21875 28.792969 C 190.222656 29.246094 189.085938 42.398438 189.085938 42.398438 C 189.765625 53.054688 181.605469 55.320313 181.605469 55.320313 C 191.808594 57.585938 190.675781 68.472656 190.675781 68.472656 C 190.222656 82.980469 175.257813 84.140625 175.257813 84.140625 L 148.277344 84.140625 L 148.277344 28.792969 "/>
<path style=" stroke:none;fill-rule:nonzero;fill:rgb(0%,45.899963%,71.398926%);fill-opacity:1;" d="M 211.078125 65.523438 C 206.242188 65.523438 205.488281 71.304688 205.488281 71.304688 C 205.488281 75.574219 208.132813 76.179688 208.132813 76.179688 C 212.890625 78.21875 220.601563 76.179688 220.601563 76.179688 L 220.601563 65.523438 Z M 214.933594 40.355469 C 231.710938 41.941406 230.578125 53.277344 230.578125 53.277344 L 230.578125 82.753906 C 216.519531 88.195313 203.824219 84.136719 203.824219 84.136719 C 195.207031 81.667969 195.660156 70.738281 195.660156 70.738281 C 196.570313 56.90625 209.71875 58.265625 209.71875 58.265625 L 220.601563 58.265625 L 220.601563 52.824219 C 215.613281 46.476563 200.648438 51.691406 200.648438 51.691406 L 198.835938 42.625 C 205.636719 40.128906 214.933594 40.355469 214.933594 40.355469 "/>
<path style=" stroke:none;fill-rule:nonzero;fill:rgb(0%,45.899963%,71.398926%);fill-opacity:1;" d="M 574.96875 65.523438 C 570.132813 65.523438 569.378906 71.304688 569.378906 71.304688 C 569.378906 75.574219 572.023438 76.179688 572.023438 76.179688 C 576.78125 78.21875 584.492188 76.179688 584.492188 76.179688 L 584.492188 65.523438 Z M 578.824219 40.355469 C 595.601563 41.941406 594.46875 53.277344 594.46875 53.277344 L 594.46875 82.753906 C 580.410156 88.195313 567.714844 84.136719 567.714844 84.136719 C 559.097656 81.667969 559.550781 70.738281 559.550781 70.738281 C 560.460938 56.90625 573.609375 58.265625 573.609375 58.265625 L 584.492188 58.265625 L 584.492188 52.824219 C 579.503906 46.476563 564.539063 51.691406 564.539063 51.691406 L 562.726563 42.625 C 569.527344 40.128906 578.824219 40.355469 578.824219 40.355469 "/>
<path style=" stroke:none;fill-rule:nonzero;fill:rgb(0%,45.899963%,71.398926%);fill-opacity:1;" d="M 238.589844 43.605469 L 238.589844 84.136719 L 248.867188 84.136719 L 248.867188 51.691406 C 248.867188 51.691406 250.226563 49.652344 256.421875 49.804688 C 256.421875 49.804688 264.433594 48.898438 265.796875 55.847656 L 265.796875 84.136719 L 275.921875 84.136719 L 275.921875 53.882813 C 275.921875 53.882813 276.222656 41.628906 260.960938 40.351563 C 260.960938 40.351563 246.445313 39.523438 238.589844 43.605469 "/>
<path style=" stroke:none;fill-rule:nonzero;fill:rgb(0%,45.899963%,71.398926%);fill-opacity:1;" d="M 312.652344 51.691406 L 314.464844 42.546875 C 314.464844 42.546875 301.464844 37.410156 290.128906 43.605469 C 290.128906 43.605469 281.210938 48.015625 281.96875 62.210938 C 281.96875 62.210938 280.304688 79.328125 294.058594 84.136719 C 294.058594 84.136719 304.035156 87.136719 314.464844 83.054688 L 313.253906 74.816406 C 313.253906 74.816406 307.8125 76.105469 303.734375 75.953125 C 303.734375 75.953125 291.792969 75.382813 291.488281 62.972656 C 291.488281 62.972656 291.339844 49.5 303.582031 50.105469 C 303.582031 50.105469 308.722656 49.5 312.652344 51.691406 "/>
<path style=" stroke:none;fill-rule:nonzero;fill:rgb(0%,45.899963%,71.398926%);fill-opacity:1;" d="M 631.425781 51.691406 L 633.238281 42.546875 C 633.238281 42.546875 620.238281 37.410156 608.902344 43.605469 C 608.902344 43.605469 599.984375 48.015625 600.738281 62.210938 C 600.738281 62.210938 599.078125 79.328125 612.832031 84.136719 C 612.832031 84.136719 622.808594 87.136719 633.238281 83.054688 L 632.027344 74.816406 C 632.027344 74.816406 626.585938 76.105469 622.503906 75.953125 C 622.503906 75.953125 610.566406 75.382813 610.261719 62.972656 C 610.261719 62.972656 610.113281 49.5 622.355469 50.105469 C 622.355469 50.105469 627.492188 49.5 631.425781 51.691406 "/>
<path style=" stroke:none;fill-rule:nonzero;fill:rgb(0%,45.899963%,71.398926%);fill-opacity:1;" d="M 734.582031 51.691406 L 736.394531 42.546875 C 736.394531 42.546875 723.394531 37.410156 712.0625 43.605469 C 712.0625 43.605469 703.144531 48.015625 703.898438 62.210938 C 703.898438 62.210938 702.238281 79.328125 715.992188 84.136719 C 715.992188 84.136719 725.96875 87.136719 736.394531 83.054688 L 735.1875 74.816406 C 735.1875 74.816406 729.746094 76.105469 725.664063 75.953125 C 725.664063 75.953125 713.722656 75.382813 713.421875 62.972656 C 713.421875 62.972656 713.269531 49.5 725.515625 50.105469 C 725.515625 50.105469 730.652344 49.5 734.582031 51.691406 "/>
<path style=" stroke:none;fill-rule:nonzero;fill:rgb(0%,45.899963%,71.398926%);fill-opacity:1;" d="M 327.726563 42.511719 C 315.9375 47.386719 318.207031 63.59375 318.207031 63.59375 C 318.546875 76.519531 322.058594 79.238281 322.058594 79.238281 C 326.140625 86.609375 337.988281 85.589844 337.988281 85.589844 C 360.828125 84.566406 357.316406 62.210938 357.316406 62.210938 C 357.089844 36.792969 337.988281 40.546875 337.988281 40.546875 C 331.5625 40.316406 327.726563 42.511719 327.726563 42.511719 M 338.042969 49.652344 C 338.042969 49.652344 346.773438 49.992188 347.339844 57.589844 L 347.339844 68.808594 C 347.339844 68.808594 345.753906 75.839844 338.042969 75.839844 C 338.042969 75.839844 330.675781 75.953125 328.636719 69.375 L 328.636719 56.566406 C 328.636719 56.566406 329.203125 49.652344 338.042969 49.652344 "/>
<g clip-path="url(#clip2)" clip-rule="nonzero">
<path style=" stroke:none;fill-rule:nonzero;fill:rgb(0%,45.899963%,71.398926%);fill-opacity:1;" d="M 749.433594 42.511719 C 737.644531 47.386719 739.910156 63.59375 739.910156 63.59375 C 740.25 76.519531 743.765625 79.238281 743.765625 79.238281 C 747.847656 86.609375 759.691406 85.589844 759.691406 85.589844 C 782.535156 84.566406 779.019531 62.210938 779.019531 62.210938 C 778.792969 36.792969 759.691406 40.546875 759.691406 40.546875 C 753.265625 40.316406 749.433594 42.511719 749.433594 42.511719 M 759.746094 49.652344 C 759.746094 49.652344 768.476563 49.992188 769.042969 57.589844 L 769.042969 68.808594 C 769.042969 68.808594 767.457031 75.839844 759.746094 75.839844 C 759.746094 75.839844 752.378906 75.953125 750.339844 69.375 L 750.339844 56.566406 C 750.339844 56.566406 750.90625 49.652344 759.746094 49.652344 "/>
</g>
<path style=" stroke:none;fill-rule:nonzero;fill:rgb(0%,45.899963%,71.398926%);fill-opacity:1;" d="M 399.484375 50.785156 C 392.796875 52.9375 393.023438 62.007813 393.023438 62.007813 C 392.457031 70.625 397.898438 74.816406 397.898438 74.816406 C 403.679688 76.972656 410.59375 74.816406 410.59375 74.816406 L 410.59375 50.785156 C 405.382813 48.972656 399.484375 50.785156 399.484375 50.785156 M 410.480469 24.257813 L 420.230469 24.257813 L 420.230469 82.527344 C 420.230469 82.527344 417.054688 84.792969 405.382813 85.019531 C 405.382813 85.019531 395.175781 86.378906 389.851563 81.167969 C 389.851563 81.167969 383.046875 76.066406 382.9375 62.121094 C 382.9375 62.121094 380.667969 44.664063 398.238281 40.921875 L 410.480469 41.09375 "/>
<path style=" stroke:none;fill-rule:nonzero;fill:rgb(0%,45.899963%,71.398926%);fill-opacity:1;" d="M 436.894531 58.378906 L 454.808594 58.378906 C 454.808594 58.378906 455.714844 49.539063 446.53125 49.085938 C 446.53125 49.085938 438.027344 48.292969 436.894531 58.378906 M 448.570313 75.953125 C 453.21875 75.953125 461.15625 73.117188 461.15625 73.117188 L 462.855469 82.867188 C 458.09375 85.246094 447.890625 85.179688 447.890625 85.179688 C 423.972656 85.90625 426.691406 62.460938 426.691406 62.460938 C 424.992188 38.65625 447.324219 40.351563 447.324219 40.351563 C 470.902344 42.5 463.761719 66.882813 463.761719 66.882813 L 437.574219 66.882813 C 437.800781 76.519531 448.570313 75.953125 448.570313 75.953125 "/>
<path style=" stroke:none;fill-rule:nonzero;fill:rgb(0%,45.899963%,71.398926%);fill-opacity:1;" d="M 471.015625 24.257813 L 480.878906 24.257813 L 480.878906 71.078125 C 480.878906 71.078125 480.085938 77.539063 487.113281 75.15625 L 489.269531 84 C 489.269531 84 482.125 86.609375 477.253906 84 C 477.253906 84 472.152344 83.09375 471.015625 73.570313 "/>
<path style=" stroke:none;fill-rule:nonzero;fill:rgb(0%,45.899963%,71.398926%);fill-opacity:1;" d="M 524.296875 55.660156 L 540.054688 55.660156 C 546.742188 54.414063 546.289063 46.363281 546.289063 46.363281 C 546.628906 38.089844 538.691406 38.316406 538.691406 38.316406 L 524.296875 38.316406 Z M 514.207031 28.792969 L 539.375 28.792969 C 539.375 28.792969 556.71875 28.453125 556.71875 46.816406 C 556.71875 46.816406 557.964844 64.273438 540.847656 65.183594 L 524.523438 65.183594 L 524.523438 84 L 514.207031 84 "/>
<path style=" stroke:none;fill-rule:nonzero;fill:rgb(0%,45.899963%,71.398926%);fill-opacity:1;" d="M 639.132813 84 L 648.652344 84 L 648.652344 41.488281 L 639.132813 41.488281 Z M 639.132813 84 "/>
<path style=" stroke:none;fill-rule:nonzero;fill:rgb(0%,45.899963%,71.398926%);fill-opacity:1;" d="M 687.765625 84 L 697.285156 84 L 697.285156 41.488281 L 687.765625 41.488281 Z M 687.765625 84 "/>
<path style=" stroke:none;fill-rule:nonzero;fill:rgb(0%,45.899963%,71.398926%);fill-opacity:1;" d="M 639.132813 36.160156 L 647.859375 36.160156 L 656.136719 24.371094 L 646.160156 24.371094 Z M 639.132813 36.160156 "/>
<path style=" stroke:none;fill-rule:nonzero;fill:rgb(0%,45.899963%,71.398926%);fill-opacity:1;" d="M 698.421875 28.4375 C 698.421875 25.179688 695.78125 22.542969 692.523438 22.542969 C 689.269531 22.542969 686.632813 25.179688 686.632813 28.4375 C 686.632813 31.691406 689.269531 34.332031 692.523438 34.332031 C 695.78125 34.332031 698.421875 31.691406 698.421875 28.4375 "/>
<path style=" stroke:none;fill-rule:nonzero;fill:rgb(0%,45.899963%,71.398926%);fill-opacity:1;" d="M 657.609375 84 L 657.609375 36.160156 C 657.609375 36.160156 657.609375 14.625 683.570313 23.464844 L 681.871094 32.308594 C 681.871094 32.308594 671.78125 27.855469 667.359375 34.332031 L 667.132813 41.488281 L 681.753906 41.488281 L 681.753906 51.011719 L 667.246094 51.011719 L 667.246094 84 "/>
</g>
</svg>
