<svg xmlns="http://www.w3.org/2000/svg" viewBox="0 0 1920 295.74"><title>Recurso 3</title><g id="Capa_2" data-name="Capa 2"><g id="Layer_7" data-name="Layer 7"><path d="M241,93.16V27.36A27.36,27.36,0,0,0,213.68,0H27.36A27.36,27.36,0,0,0,0,27.36V213.68A27.36,27.36,0,0,0,27.36,241h65.8a27.36,27.36,0,0,0,27.36-27.35V147.87a27.34,27.34,0,0,1,27.35-27.35h65.81A27.36,27.36,0,0,0,241,93.16Z" style="fill:#002880"/><path d="M241,147.87v65.81A27.36,27.36,0,0,1,213.68,241H147.87a27.35,27.35,0,0,0-27.35,27.36h0a27.34,27.34,0,0,0,27.35,27.35H268.39a27.34,27.34,0,0,0,27.35-27.35V147.87a27.34,27.34,0,0,0-27.35-27.35h0A27.35,27.35,0,0,0,241,147.87Z" style="fill:#2f71ff"/><rect x="120.52" y="120.52" width="120.52" height="120.52" rx="27.36" style="fill:#fff"/><path d="M384.35,20.29H527.24V69H433.82v47.34h93.42v47.86H433.82v68.87h93.42V282H384.35Z" style="fill:#fff"/><path d="M757.86,127.59l-40.44,22.24Q706,137.9,694.88,133.28t-26.1-4.62q-27.25,0-44.09,16.25t-16.84,41.66q0,24.7,16.21,40.33t42.58,15.64q32.61,0,50.78-22.24l38.31,26.22Q724.58,287,667.82,287q-51.08,0-80-30.25T558.92,186a99.7,99.7,0,0,1,53.29-89q25.17-13.51,56.32-13.52,28.83,0,51.78,11.47A98.23,98.23,0,0,1,757.86,127.59Z" style="fill:#fff"/><path d="M801.45,88.44h49.11v93.24q0,27.23,3.75,37.82a32.9,32.9,0,0,0,12,16.45q8.29,5.88,20.42,5.88T907.38,236q8.46-5.78,12.57-17,3-8.37,3-35.77V88.44h48.57v82q0,50.72-8,69.4-9.79,22.77-28.83,35T886.33,287q-31.86,0-51.52-14.23t-27.67-39.68q-5.7-17.62-5.69-64.06Z" style="fill:#fff"/><path d="M1163.21,88.44h48.58V282h-48.58V261.58q-14.22,13.51-28.52,19.48a79.74,79.74,0,0,1-31,6q-37.52,0-64.88-29.09t-27.37-72.33q0-44.85,26.48-73.49t64.34-28.65A81.93,81.93,0,0,1,1135,90a89.21,89.21,0,0,1,28.26,19.75Zm-51.06,39.86q-22.53,0-37.43,15.92t-14.89,40.84q0,25.09,15.16,41.29a49.14,49.14,0,0,0,37.33,16.19q22.88,0,38-15.93t15.07-41.73q0-25.26-15.07-40.92T1112.15,128.3Z" style="fill:#fff"/><path d="M1237.77,88.44H1255q.17-38.08,1.25-45,2-16,13.43-25.36t32.47-9.34q15.13,0,34.17,6.94v37q-10.5-3-17.26-3-8.55,0-12.45,3.56-2.85,2.67-2.85,11l-.19,24.2h30.79v41.1H1303.6V282H1255V129.54h-17.26Z" style="fill:#fff"/><path d="M1505.75,88.44h48.57V282h-48.57V261.58q-14.22,13.51-28.53,19.48a79.7,79.7,0,0,1-31,6q-37.5,0-64.88-29.09T1354,185.6q0-44.85,26.48-73.49t64.35-28.65a82,82,0,0,1,32.7,6.58,89.32,89.32,0,0,1,28.26,19.75Zm-51.07,39.86q-22.53,0-37.42,15.92t-14.9,40.84q0,25.09,15.16,41.29a49.17,49.17,0,0,0,37.34,16.19q22.88,0,38-15.93t15.07-41.73q0-25.26-15.07-40.92T1454.68,128.3Z" style="fill:#fff"/><path d="M1792.94,127.59l-40.43,22.24Q1741.1,137.9,1730,133.28t-26.1-4.62q-27.25,0-44.1,16.25t-16.83,41.66q0,24.7,16.21,40.33t42.58,15.64q32.61,0,50.78-22.24l38.3,26.22Q1759.67,287,1702.9,287q-51.08,0-80-30.25T1594,186a99.7,99.7,0,0,1,53.29-89q25.17-13.51,56.32-13.52,28.83,0,51.78,11.47A98.13,98.13,0,0,1,1792.94,127.59Z" style="fill:#fff"/><path d="M1842.6,17.08h48.57V88.44H1920v41.82h-28.83V282H1842.6V130.26h-24.92V88.44h24.92Z" style="fill:#fff"/></g></g></svg>