<svg xmlns="http://www.w3.org/2000/svg" viewBox="0 0 328.1 62.09"><defs><style>.cls-1{fill:#fff;}.cls-2{fill:#e4f2fc;}.cls-3{fill:#bde1f9;}.cls-4{fill:#8bcaec;}</style></defs><title>Recurso 5</title><g id="Capa_2" data-name="Capa 2"><g id="Layer_1" data-name="Layer 1"><rect class="cls-1" y="3.99" width="18.32" height="19.13"/><rect class="cls-2" x="18.32" y="3.99" width="18.33" height="19.13"/><rect class="cls-3" x="36.66" y="3.99" width="18.33" height="19.13"/><rect class="cls-4" y="23.12" width="18.32" height="19.12"/><rect class="cls-4" x="36.66" y="23.12" width="18.33" height="19.12"/><rect class="cls-3" y="42.19" width="18.32" height="19.13"/><rect class="cls-2" x="18.32" y="42.19" width="18.33" height="19.13"/><rect class="cls-1" x="36.66" y="42.19" width="18.33" height="19.13"/><path class="cls-1" d="M95.39,61.31H65.67V4.11H95.39V12H74.25V27.58h19.8v7.83H74.25v18H95.39Z"/><path class="cls-1" d="M117.53,62.09q-9,0-13.71-5.73T99.13,39.91q0-10.92,4.9-16.79t14.18-5.87a24.71,24.71,0,0,1,11.32,2.55L127,27.19a23.92,23.92,0,0,0-8.84-2.27q-10.32,0-10.32,14.91,0,7.28,2.57,10.93a8.63,8.63,0,0,0,7.53,3.66,20.27,20.27,0,0,0,10.67-3.05v8a15.52,15.52,0,0,1-4.83,2.07A26.52,26.52,0,0,1,117.53,62.09Z"/><path class="cls-1" d="M161.63,61.31l-1.19-5.68H160a12.45,12.45,0,0,1-5,4.74,15.63,15.63,0,0,1-7.43,1.72q-7.22,0-10.78-3.91t-3.55-11.86V18h8.51V44.72c0,3.31.63,5.8,1.87,7.45s3.2,2.49,5.86,2.49c3.54,0,6.15-1.16,7.81-3.47s2.5-6.17,2.5-11.6V18h8.48V61.31Z"/><path class="cls-1" d="M200.83,61.31l-1.68-6h-.29a16.68,16.68,0,0,1-5.79,5.38,17,17,0,0,1-7.47,1.43q-5.86,0-9.15-3.44t-3.28-9.75q0-6.69,4.56-10.09t13.91-3.72l6.86-.23V32.55q0-4.14-1.78-6.2T191.2,24.3a17.69,17.69,0,0,0-5.85,1A43.92,43.92,0,0,0,180,27.58L177.23,21a27.68,27.68,0,0,1,7.07-2.8,30.1,30.1,0,0,1,7.26-1q7.59,0,11.45,3.6t3.86,11.31V61.31Zm-12.57-6.26a9.93,9.93,0,0,0,7.38-2.8c1.86-1.86,2.79-4.48,2.79-7.84V40.65l-5.11.23c-4,.16-6.87.89-8.67,2.18A6.78,6.78,0,0,0,181.93,49a6.07,6.07,0,0,0,1.58,4.48A6.44,6.44,0,0,0,188.26,55.05Z"/><path class="cls-1" d="M234.26,25h-9.7V61.31h-8.48V25h-6.54V20.7l6.54-2.82V15.06q0-7.67,3.3-11.36T229.48,0a25.21,25.21,0,0,1,8.77,1.6l-2.23,7a18,18,0,0,0-6-1.1,4.69,4.69,0,0,0-4.19,1.94,10.39,10.39,0,0,0-1.31,5.81V18h9.7Z"/><path class="cls-1" d="M261.54,61.31l-1.69-6h-.29a16.58,16.58,0,0,1-5.78,5.38,17,17,0,0,1-7.48,1.43q-5.85,0-9.14-3.44t-3.29-9.75q0-6.69,4.56-10.09t13.91-3.72l6.87-.23V32.55c0-2.76-.6-4.83-1.78-6.2s-3-2.05-5.52-2.05a17.7,17.7,0,0,0-5.86,1,44.59,44.59,0,0,0-5.39,2.31L237.93,21a27.9,27.9,0,0,1,7.08-2.8,30,30,0,0,1,7.26-1q7.57,0,11.45,3.6t3.86,11.31V61.31ZM249,55.05a10,10,0,0,0,7.39-2.8c1.86-1.86,2.78-4.48,2.78-7.84V40.65l-5.1.23q-6,.24-8.68,2.18A6.77,6.77,0,0,0,242.64,49a6.07,6.07,0,0,0,1.58,4.48A6.42,6.42,0,0,0,249,55.05Z"/><path class="cls-1" d="M291.05,62.09q-9,0-13.71-5.73t-4.69-16.45q0-10.92,4.91-16.79t14.17-5.87a24.68,24.68,0,0,1,11.32,2.55l-2.55,7.39a23.92,23.92,0,0,0-8.84-2.27q-10.32,0-10.31,14.91,0,7.28,2.57,10.93a8.6,8.6,0,0,0,7.52,3.66,20.3,20.3,0,0,0,10.68-3.05v8a15.57,15.57,0,0,1-4.84,2.07A26.52,26.52,0,0,1,291.05,62.09Z"/><path class="cls-1" d="M321.92,54.66a19.12,19.12,0,0,0,6.18-1.06v6.92a15.47,15.47,0,0,1-3.61,1.12,22.88,22.88,0,0,1-4.58.45q-12,0-12-13.77V25h-5.43V20.93l5.82-3.36,2.88-9.16h5.21V18h11.32v7H316.39V48.16q0,3.33,1.53,4.91A5.28,5.28,0,0,0,321.92,54.66Z"/></g></g></svg>